<svg id="grades" xmlns="http://www.w3.org/2000/svg" viewBox="0 0 150 150"><defs><style>.cls-1{fill:#bdd782;}.cls-2{fill:#06819b;}.cls-3{fill:#fff;}.cls-4{fill:#d9d9d9;}.cls-5{fill:#069948;}.cls-6{fill:#16a6b6;}.cls-7{fill:#ffc630;}.cls-8{fill:#dfe0de;}.cls-9{fill:#363795;}.cls-10{fill:#2f67b2;}.cls-11{fill:#008dce;}</style></defs><rect class="cls-1" x="-0.618" y="-1.457" width="150.251" height="152.261"/><path class="cls-2" d="M120.681,5.528H28.559a9.369,9.369,0,0,0-9.373,9.365V132.474a9.369,9.369,0,0,0,9.373,9.366h92.122a9.37,9.37,0,0,0,9.374-9.366V14.893A9.37,9.37,0,0,0,120.681,5.528Z"/><path class="cls-3" d="M28.559,10.75h92.122a4.147,4.147,0,0,1,4.147,4.147V132.471a4.147,4.147,0,0,1-4.147,4.147H28.556a4.144,4.144,0,0,1-4.144-4.144V14.9A4.147,4.147,0,0,1,28.559,10.75Z"/><rect class="cls-4" x="66.563" y="52.988" width="33.679" height="5.222"/><rect class="cls-4" x="66.563" y="62.562" width="45.582" height="5.222"/><rect class="cls-4" x="66.563" y="81.129" width="33.679" height="5.222"/><rect class="cls-4" x="66.563" y="90.702" width="45.582" height="5.222"/><rect class="cls-4" x="66.563" y="109.27" width="33.679" height="5.222"/><rect class="cls-4" x="66.563" y="118.843" width="45.582" height="5.222"/><rect class="cls-4" x="38.982" y="48.637" width="19.162" height="19.147"/><polygon class="cls-5" points="47.591 66.515 39.544 57.092 42.194 54.832 47.647 61.219 61.062 46.173 63.663 48.489 47.591 66.515"/><rect class="cls-4" x="38.982" y="76.777" width="19.162" height="19.147"/><polygon class="cls-5" points="47.591 94.656 39.544 85.232 42.194 82.973 47.647 89.36 61.062 74.314 63.663 76.63 47.591 94.656"/><rect class="cls-4" x="38.982" y="104.918" width="19.162" height="19.147"/><polygon class="cls-5" points="47.591 122.797 39.544 113.373 42.194 111.114 47.647 117.5 61.062 102.455 63.663 104.77 47.591 122.797"/><path class="cls-6" d="M42.063,19.193l4.789-.952L58.04,37.057l-4.589.912-2.164-3.9-7.459,1.482-.546,4.433-4.427.88ZM44.286,31.84l5.187-1.031-4.14-7.456Z"/><path class="cls-6" d="M55.356,23.548l-.52-2.618,4.116-.818L58.134,16l2.641-.524.817,4.113,4.116-.818.52,2.618-4.116.818.821,4.132-2.64.525-.821-4.133Z"/><polygon class="cls-7" points="97.783 15.665 102.267 24.742 112.292 26.197 105.038 33.263 106.75 43.24 97.783 38.529 88.817 43.24 90.529 33.263 83.275 26.197 93.3 24.742 97.783 15.665"/><path class="cls-8" d="M114.722,64.09l-41.6,65.572s-2.093,5.1-2.2,5.591l-2.94,11.492a.354.354,0,0,0,.573.363l9.146-7.564c.4-.306,4.119-4.375,4.119-4.375l41.6-65.577Z"/><path class="cls-9" d="M68.717,143.865l-.737,2.88a.354.354,0,0,0,.573.363l2.291-1.9Z"/><path class="cls-10" d="M132.259,39.613a2.677,2.677,0,0,0-3.692.827s-11.293,17.325-16.678,25.813S73.1,127.868,73.1,127.868a20.973,20.973,0,0,0-1.03,3.6l8.564,5.421a20.964,20.964,0,0,0,2.82-2.465s33.4-52.183,39.216-61.346S138.916,47,138.916,47a2.672,2.672,0,0,0-.827-3.689Z"/><path class="cls-11" d="M134.888,41.278l-2.629-1.665a2.676,2.676,0,0,0-3.692.827s-11.293,17.325-16.678,25.813S73.1,127.868,73.1,127.868a20.973,20.973,0,0,0-1.03,3.6l4,2.53Z"/></svg>